<?xml version="1.0" standalone="no"?>
<!DOCTYPE svg PUBLIC "-//W3C//DTD SVG 20010904//EN"
 "http://www.w3.org/TR/2001/REC-SVG-20010904/DTD/svg10.dtd">
<svg version="1.0" xmlns="http://www.w3.org/2000/svg"
 width="405.000000pt" height="405.000000pt" viewBox="0 0 405.000000 405.000000"
 preserveAspectRatio="xMidYMid meet">

<g transform="translate(0.000000,405.000000) scale(0.100000,-0.100000)"
fill="#000000" stroke="none">
<path d="M0 2025 l0 -2025 2025 0 2025 0 0 2025 0 2025 -2025 0 -2025 0 0
-2025z m1652 952 c31 -44 428 -568 443 -585 10 -11 65 46 289 303 l277 316
160 -2 c87 0 159 -4 159 -8 0 -4 -23 -34 -51 -67 -75 -86 -128 -146 -408 -466
-138 -158 -251 -292 -251 -298 0 -10 341 -466 792 -1058 26 -35 48 -67 48 -72
0 -5 -149 -8 -332 -7 l-332 2 -118 155 c-65 85 -182 238 -259 340 -78 102
-144 185 -148 185 -5 0 -79 -81 -165 -180 -87 -99 -215 -245 -284 -325 -70
-79 -135 -152 -144 -162 -15 -15 -38 -17 -173 -16 -85 0 -157 3 -159 7 -2 3
154 186 346 406 193 220 366 419 385 442 l35 43 -88 116 c-49 64 -136 178
-194 253 -453 591 -530 694 -530 702 0 6 137 9 340 9 l340 -1 22 -32z"/>
<path d="M1343 2806 c3 -8 48 -70 100 -138 168 -219 246 -321 331 -433 89
-117 537 -703 683 -892 l86 -113 89 0 c48 0 88 3 88 6 0 3 -91 125 -202 272
-351 464 -538 711 -686 907 -80 105 -181 238 -225 298 l-81 107 -94 0 c-78 0
-93 -2 -89 -14z"/>
</g>
</svg>
